<?xml version="1.0" encoding="UTF-8"?><svg id="opc3" xmlns="http://www.w3.org/2000/svg" viewBox="315 682 433 171"><defs><style>.cls-1{fill:none;stroke:#3594a9;stroke-miterlimit:10;stroke-width:3px;}.cls-2{fill:#fff;}.cls-3{fill:#6ed8ff;}.cls-4{opacity:.72;}</style></defs><polygon class="cls-4" points="320.77 734.32 743.2 729.88 743.2 763.29 646.94 848.19 415.53 848.19 319.27 848.19 320.77 734.32"/><polygon class="cls-1" points="320.77 734.32 743.2 729.88 743.02 761.88 647.4 848.19 415.71 848.19 319.45 848.19 320.77 734.32"/><path class="cls-3" d="M342.11,760.21h5l3.25,24.48h.09l3.25-24.48h4.55l-4.78,31.55h-6.58l-4.78-31.55Z"/><path class="cls-3" d="M360.64,760.21h13.52v4.51h-8.56v8.34h6.81v4.51h-6.81v9.69h8.56v4.51h-13.52v-31.55Z"/><path class="cls-3" d="M377,760.21h7.35c2.55,0,4.42.59,5.59,1.78,1.17,1.19,1.76,3.01,1.76,5.48v1.94c0,3.28-1.08,5.35-3.25,6.22v.09c1.2.36,2.05,1.1,2.55,2.21.5,1.11.74,2.6.74,4.46v5.54c0,.9.03,1.63.09,2.19.06.56.21,1.1.45,1.65h-5.05c-.18-.51-.3-.99-.36-1.44-.06-.45-.09-1.26-.09-2.43v-5.77c0-1.44-.23-2.45-.7-3.02-.47-.57-1.27-.86-2.41-.86h-1.71v13.52h-4.96v-31.55ZM383.76,773.74c.99,0,1.74-.25,2.23-.77.5-.51.74-1.37.74-2.57v-2.43c0-1.14-.2-1.97-.61-2.48-.41-.51-1.04-.77-1.92-.77h-2.25v9.02h1.8Z"/><path class="cls-3" d="M398.95,764.72h-5.18v-4.51h15.33v4.51h-5.18v27.05h-4.96v-27.05Z"/><path class="cls-3" d="M411.48,760.21h13.52v4.51h-8.56v8.34h6.81v4.51h-6.81v9.69h8.56v4.51h-13.52v-31.55Z"/><path class="cls-3" d="M427.85,760.21h7.35c2.55,0,4.42.59,5.59,1.78,1.17,1.19,1.76,3.01,1.76,5.48v1.94c0,3.28-1.08,5.35-3.25,6.22v.09c1.2.36,2.05,1.1,2.55,2.21.5,1.11.74,2.6.74,4.46v5.54c0,.9.03,1.63.09,2.19.06.56.21,1.1.45,1.65h-5.05c-.18-.51-.3-.99-.36-1.44-.06-.45-.09-1.26-.09-2.43v-5.77c0-1.44-.23-2.45-.7-3.02-.47-.57-1.27-.86-2.41-.86h-1.71v13.52h-4.96v-31.55ZM434.61,773.74c.99,0,1.74-.25,2.23-.77.5-.51.74-1.37.74-2.57v-2.43c0-1.14-.2-1.97-.61-2.48-.41-.51-1.04-.77-1.92-.77h-2.25v9.02h1.8Z"/><path class="cls-2" d="M343.48,826.53v-16.28h9.33l-.08,1.68h-7.35v5.33h6.99v1.66h-6.99v5.92h7.59l-.09,1.68h-9.41Z"/><path class="cls-2" d="M358.97,826.75c-1.17,0-2-.32-2.49-.95s-.73-1.73-.73-3.29v-12.74l1.83-.11v12.13c0,.5,0,.9.02,1.2s.04.6.08.89.1.51.18.65.18.28.32.4.31.2.5.24.43.06.72.06c.23,0,.7-.04,1.39-.13l.1,1.46c-.76.12-1.39.19-1.9.19Z"/><path class="cls-2" d="M375.09,826.53c-.11-.47-.22-.98-.32-1.52-.67.67-1.29,1.13-1.88,1.39s-1.28.39-2.07.39c-1.13,0-2.04-.3-2.72-.89s-1.03-1.44-1.03-2.55c0-1.23.47-2.15,1.4-2.74s2.28-.96,4.04-1.11c.24-.02.61-.05,1.1-.09s.85-.07,1.1-.09v-1.07c0-.85-.2-1.48-.59-1.89s-1.02-.62-1.87-.62c-1.19,0-2.39.29-3.6.88-.04-.09-.13-.34-.29-.76s-.23-.64-.24-.65c.54-.3,1.17-.54,1.91-.72s1.49-.27,2.25-.27c1.5,0,2.59.33,3.25.98s1,1.77,1,3.35v7.99h-1.43ZM371.1,825.3c.87,0,1.64-.24,2.31-.72s1.09-1.13,1.28-1.94v-2.04s-.26.02-.67.06-.67.06-.8.07c-1.59.14-2.7.4-3.33.78s-.94.99-.94,1.84c0,.65.19,1.13.57,1.46s.91.5,1.57.5Z"/><path class="cls-2" d="M381.55,832.06l-.17-1.66h2.25c.62,0,1.17-.04,1.63-.13s.85-.23,1.16-.43.56-.43.75-.67.34-.56.43-.96.17-.78.2-1.17.05-.86.05-1.41v-1.07c-.44.63-.95,1.12-1.53,1.46s-1.32.51-2.21.51c-.69,0-1.33-.12-1.91-.36s-1.07-.56-1.47-.95-.74-.85-1.02-1.38-.49-1.06-.62-1.62-.19-1.12-.19-1.68c0-.88.11-1.69.32-2.44s.54-1.42.96-2,.98-1.05,1.68-1.38,1.49-.5,2.38-.5c.79,0,1.48.15,2.07.46s1.12.77,1.59,1.4v-1.61h1.79v11.2c0,.51-.01.96-.04,1.35s-.09.81-.19,1.28-.23.87-.4,1.21-.41.68-.71,1.02-.67.62-1.09.83-.94.38-1.57.51-1.33.2-2.11.2h-2.04ZM384.38,824.96c.62,0,1.17-.11,1.64-.33s.84-.52,1.1-.91.46-.82.59-1.3.19-1,.19-1.56v-.89c0-.59-.07-1.13-.2-1.62s-.34-.94-.61-1.33-.64-.7-1.1-.92-.99-.33-1.6-.33c-.51,0-.97.1-1.38.29s-.76.44-1.02.75-.5.67-.68,1.09-.32.83-.4,1.26-.12.85-.12,1.29.04.85.13,1.27.23.83.42,1.22.42.74.69,1.04.61.54,1.02.72.85.28,1.34.28Z"/><path class="cls-2" d="M392.34,822.5v-8.04h1.85v8.07c0,.53.08.98.23,1.34s.37.65.65.85.6.35.96.43.76.13,1.23.13c.95,0,1.7-.21,2.23-.63s.8-1.13.8-2.14v-8.07h1.85v8.04c0,.62-.09,1.17-.26,1.66s-.41.9-.71,1.23-.65.6-1.07.81-.86.37-1.33.46-.97.14-1.5.14-1.03-.05-1.5-.14-.92-.25-1.34-.47-.79-.49-1.09-.81-.54-.74-.72-1.23-.26-1.04-.26-1.65Z"/><path class="cls-2" d="M412.34,826.53c-.11-.47-.22-.98-.32-1.52-.67.67-1.29,1.13-1.88,1.39s-1.28.39-2.07.39c-1.13,0-2.04-.3-2.72-.89s-1.03-1.44-1.03-2.55c0-1.23.47-2.15,1.4-2.74s2.28-.96,4.04-1.11c.24-.02.61-.05,1.1-.09s.85-.07,1.1-.09v-1.07c0-.85-.2-1.48-.59-1.89s-1.02-.62-1.87-.62c-1.19,0-2.39.29-3.6.88-.04-.09-.13-.34-.29-.76s-.23-.64-.24-.65c.54-.3,1.17-.54,1.91-.72s1.49-.27,2.25-.27c1.5,0,2.59.33,3.25.98s1,1.77,1,3.35v7.99h-1.43ZM408.35,825.3c.87,0,1.64-.24,2.31-.72s1.09-1.13,1.28-1.94v-2.04s-.26.02-.67.06-.67.06-.8.07c-1.59.14-2.7.4-3.33.78s-.94.99-.94,1.84c0,.65.19,1.13.57,1.46s.91.5,1.57.5Z"/><path class="cls-2" d="M427.67,826.78c-1.75,0-3.13-.56-4.14-1.67s-1.51-2.64-1.51-4.58.49-3.39,1.46-4.55,2.26-1.76,3.85-1.78c1.5,0,2.68.51,3.56,1.54s1.32,2.39,1.32,4.1c0,.09,0,.25,0,.48s0,.4,0,.51h-8.29c.02,1.37.38,2.44,1.06,3.21s1.61,1.15,2.77,1.15c1.28,0,2.56-.34,3.84-1.01l.29,1.49c-1.23.75-2.62,1.12-4.19,1.12ZM429.53,816.69c-.54-.64-1.28-.96-2.22-.96s-1.71.33-2.3,1-.94,1.57-1.05,2.72h6.37c0-1.2-.27-2.11-.81-2.76Z"/><path class="cls-2" d="M434.76,826.53v-12.07h1.54l.23,1.73c.48-.59,1.07-1.07,1.79-1.44s1.49-.54,2.32-.54c1.39,0,2.42.39,3.09,1.17s1,1.98,1,3.6v7.55h-1.84c0-4.84,0-7.44-.01-7.78-.03-1.03-.24-1.78-.62-2.26s-1.03-.72-1.93-.72-1.74.23-2.37.68-1.04,1.05-1.23,1.77c-.07.49-.11,1.06-.11,1.69v6.6h-1.86Z"/><path class="cls-2" d="M458.52,826.78c-1.75,0-3.13-.56-4.14-1.67s-1.51-2.64-1.51-4.58.49-3.39,1.46-4.55,2.26-1.76,3.85-1.78c1.5,0,2.68.51,3.56,1.54s1.32,2.39,1.32,4.1c0,.09,0,.25,0,.48s0,.4,0,.51h-8.29c.02,1.37.38,2.44,1.06,3.21s1.61,1.15,2.77,1.15c1.28,0,2.56-.34,3.84-1.01l.29,1.49c-1.23.75-2.62,1.12-4.19,1.12ZM460.38,816.69c-.54-.64-1.28-.96-2.22-.96s-1.71.33-2.3,1-.94,1.57-1.05,2.72h6.37c0-1.2-.27-2.11-.81-2.76Z"/><path class="cls-2" d="M468.86,826.75c-1.17,0-2-.32-2.49-.95s-.73-1.73-.73-3.29v-12.74l1.83-.11v12.13c0,.5,0,.9.02,1.2s.04.6.08.89.1.51.18.65.18.28.32.4.31.2.5.24.43.06.72.06c.23,0,.7-.04,1.39-.13l.1,1.46c-.76.12-1.39.19-1.9.19Z"/><path class="cls-2" d="M481.35,826.75c-1.19,0-2.03-.29-2.53-.87s-.76-1.52-.79-2.81v-7.25h-1.79l.08-1.21,1.71-.15.63-2.76,1.21-.04v2.81h3.36v1.36h-3.36v6.92c0,.92.14,1.56.42,1.94s.76.56,1.43.56c.24,0,.77-.06,1.57-.18l.08,1.45c-.87.15-1.54.23-2,.23Z"/><path class="cls-2" d="M492.76,826.53c-.11-.47-.22-.98-.32-1.52-.67.67-1.29,1.13-1.88,1.39s-1.28.39-2.07.39c-1.13,0-2.04-.3-2.72-.89s-1.03-1.44-1.03-2.55c0-1.23.47-2.15,1.4-2.74s2.28-.96,4.04-1.11c.24-.02.61-.05,1.1-.09s.85-.07,1.1-.09v-1.07c0-.85-.2-1.48-.59-1.89s-1.02-.62-1.87-.62c-1.19,0-2.39.29-3.6.88-.04-.09-.13-.34-.29-.76s-.23-.64-.24-.65c.54-.3,1.17-.54,1.91-.72s1.49-.27,2.25-.27c1.5,0,2.59.33,3.25.98s1,1.77,1,3.35v7.99h-1.43ZM488.76,825.3c.87,0,1.64-.24,2.31-.72s1.09-1.13,1.28-1.94v-2.04s-.26.02-.67.06-.67.06-.8.07c-1.59.14-2.7.4-3.33.78s-.94.99-.94,1.84c0,.65.19,1.13.57,1.46s.91.5,1.57.5Z"/><path class="cls-2" d="M497.36,826.53v-12.07h1.54l.23,1.73c.48-.59,1.07-1.07,1.79-1.44s1.49-.54,2.32-.54c1.39,0,2.42.39,3.09,1.17s1,1.98,1,3.6v7.55h-1.84c0-4.84,0-7.44-.01-7.78-.03-1.03-.24-1.78-.62-2.26s-1.03-.72-1.93-.72-1.74.23-2.37.68-1.04,1.05-1.23,1.77c-.07.49-.11,1.06-.11,1.69v6.6h-1.86Z"/><path class="cls-2" d="M514.89,826.78c-1.05,0-1.96-.27-2.72-.81s-1.34-1.28-1.72-2.2-.57-1.99-.57-3.19.19-2.35.57-3.3.96-1.7,1.74-2.25,1.71-.83,2.8-.83c1.5,0,2.77.65,3.8,1.96l.13-1.71h1.63v17.2l-1.84.11v-5.36c0-.54.02-1.08.06-1.63-.41.62-.95,1.1-1.62,1.46s-1.42.54-2.25.54ZM515.13,825.2c1.22,0,2.11-.38,2.69-1.14s.87-1.88.89-3.35c0-1.62-.28-2.85-.85-3.68s-1.48-1.24-2.74-1.24c-.76,0-1.4.22-1.92.65s-.89,1-1.11,1.68-.33,1.48-.33,2.38c0,.68.06,1.3.19,1.85s.32,1.05.59,1.47.61.76,1.05,1,.95.36,1.54.36Z"/><path class="cls-2" d="M523.3,822.5v-8.04h1.85v8.07c0,.53.08.98.23,1.34s.37.65.65.85.6.35.96.43.76.13,1.23.13c.95,0,1.7-.21,2.23-.63s.8-1.13.8-2.14v-8.07h1.85v8.04c0,.62-.09,1.17-.26,1.66s-.41.9-.71,1.23-.65.6-1.07.81-.86.37-1.33.46-.97.14-1.5.14-1.03-.05-1.5-.14-.92-.25-1.34-.47-.79-.49-1.09-.81-.54-.74-.72-1.23-.26-1.04-.26-1.65Z"/><path class="cls-2" d="M540.93,826.78c-1.75,0-3.13-.56-4.14-1.67s-1.51-2.64-1.51-4.58.49-3.39,1.46-4.55,2.26-1.76,3.85-1.78c1.5,0,2.68.51,3.56,1.54s1.32,2.39,1.32,4.1c0,.09,0,.25,0,.48s0,.4,0,.51h-8.29c.02,1.37.38,2.44,1.06,3.21s1.61,1.15,2.77,1.15c1.28,0,2.56-.34,3.84-1.01l.29,1.49c-1.23.75-2.62,1.12-4.19,1.12ZM542.78,816.69c-.54-.64-1.28-.96-2.22-.96s-1.71.33-2.3,1-.94,1.57-1.05,2.72h6.37c0-1.2-.27-2.11-.81-2.76Z"/><polygon class="cls-4" points="831.65 733.08 1256.52 728.62 1256.52 762.22 1159.71 847.61 926.96 847.61 830.14 847.61 831.65 733.08"/><polygon class="cls-1" points="831.65 733.08 1256.52 728.62 1256.34 760.8 1160.17 847.61 927.14 847.61 830.33 847.61 831.65 733.08"/><path class="cls-3" d="M860.28,760.81h6.75l5.17,31.72h-4.98l-.91-6.3v.09h-5.66l-.91,6.21h-4.62l5.17-31.72ZM865.71,782.01l-2.22-15.68h-.09l-2.18,15.68h4.49Z"/><path class="cls-3" d="M876.04,790.92c-1.27-1.37-1.9-3.34-1.9-5.91v-16.68c0-2.57.63-4.54,1.9-5.91,1.27-1.37,3.11-2.06,5.53-2.06s4.26.69,5.53,2.06c1.27,1.37,1.9,3.35,1.9,5.91v2.72h-4.71v-3.04c0-2.08-.86-3.13-2.58-3.13s-2.58,1.04-2.58,3.13v17.36c0,2.05.86,3.08,2.58,3.08s2.58-1.03,2.58-3.08v-6.21h-2.49v-4.53h7.2v10.38c0,2.57-.63,4.54-1.9,5.91-1.27,1.38-3.11,2.06-5.53,2.06s-4.26-.69-5.53-2.06Z"/><path class="cls-3" d="M892.22,760.81h7.39c2.57,0,4.44.6,5.62,1.79,1.18,1.19,1.77,3.03,1.77,5.51v1.95c0,3.29-1.09,5.38-3.26,6.25v.09c1.21.36,2.06,1.1,2.56,2.22s.75,2.61.75,4.49v5.57c0,.91.03,1.64.09,2.2.06.56.21,1.11.45,1.65h-5.08c-.18-.51-.3-1-.36-1.45-.06-.45-.09-1.27-.09-2.45v-5.8c0-1.45-.23-2.46-.7-3.04-.47-.57-1.28-.86-2.42-.86h-1.72v13.59h-4.98v-31.72ZM899.02,774.4c1,0,1.74-.26,2.24-.77s.75-1.37.75-2.58v-2.45c0-1.15-.2-1.98-.61-2.49-.41-.51-1.05-.77-1.92-.77h-2.27v9.06h1.81Z"/><path class="cls-3" d="M910.48,760.81h13.59v4.53h-8.61v8.38h6.84v4.53h-6.84v9.74h8.61v4.53h-13.59v-31.72Z"/><path class="cls-3" d="M928.47,790.92c-1.27-1.37-1.9-3.34-1.9-5.91v-16.68c0-2.57.63-4.54,1.9-5.91,1.27-1.37,3.11-2.06,5.53-2.06s4.26.69,5.53,2.06c1.27,1.37,1.9,3.35,1.9,5.91v2.72h-4.71v-3.04c0-2.08-.86-3.13-2.58-3.13s-2.58,1.04-2.58,3.13v17.36c0,2.05.86,3.08,2.58,3.08s2.58-1.03,2.58-3.08v-6.21h-2.49v-4.53h7.2v10.38c0,2.57-.63,4.54-1.9,5.91-1.27,1.38-3.11,2.06-5.53,2.06s-4.26-.69-5.53-2.06Z"/><path class="cls-3" d="M948.5,760.81h6.75l5.17,31.72h-4.98l-.91-6.3v.09h-5.66l-.91,6.21h-4.62l5.17-31.72ZM953.94,782.01l-2.22-15.68h-.09l-2.18,15.68h4.49Z"/><path class="cls-3" d="M962.82,760.81h7.39c2.57,0,4.44.6,5.62,1.79s1.77,3.03,1.77,5.51v1.95c0,3.29-1.09,5.38-3.26,6.25v.09c1.21.36,2.06,1.1,2.56,2.22.5,1.12.75,2.61.75,4.49v5.57c0,.91.03,1.64.09,2.2.06.56.21,1.11.45,1.65h-5.08c-.18-.51-.3-1-.36-1.45-.06-.45-.09-1.27-.09-2.45v-5.8c0-1.45-.23-2.46-.7-3.04-.47-.57-1.28-.86-2.42-.86h-1.72v13.59h-4.98v-31.72ZM969.62,774.4c1,0,1.75-.26,2.24-.77.5-.51.75-1.37.75-2.58v-2.45c0-1.15-.2-1.98-.61-2.49-.41-.51-1.05-.77-1.93-.77h-2.27v9.06h1.81Z"/><path class="cls-2" d="M856.49,827.48v-16.36h9.38l-.08,1.69h-7.39v5.35h7.03v1.67h-7.03v5.95h7.63l-.09,1.69h-9.46Z"/><path class="cls-2" d="M872.06,827.7c-1.18,0-2.02-.32-2.51-.95s-.74-1.74-.74-3.31v-12.81l1.84-.11v12.19c0,.5,0,.9.02,1.21s.04.6.08.89.1.51.18.66.18.28.32.4.31.2.5.24.44.06.72.06c.24,0,.7-.04,1.39-.13l.1,1.47c-.76.13-1.4.19-1.91.19Z"/><path class="cls-2" d="M885.88,827.73c-1.78,0-3.18-.58-4.19-1.74s-1.51-2.67-1.51-4.55c0-1.89.52-3.42,1.54-4.6s2.42-1.76,4.2-1.76c.63,0,1.23.08,1.82.23s1.05.36,1.39.61l-.51,1.44c-.86-.46-1.77-.7-2.73-.7-1.17,0-2.1.43-2.78,1.28s-1.02,2.02-1.02,3.51.34,2.59,1.01,3.44,1.61,1.27,2.8,1.27c.95,0,1.92-.26,2.92-.77l.23,1.47c-.8.58-1.86.87-3.18.87Z"/><path class="cls-2" d="M898.97,827.48c-.11-.47-.22-.98-.32-1.53-.67.67-1.3,1.14-1.89,1.39s-1.28.39-2.08.39c-1.14,0-2.05-.3-2.74-.89s-1.03-1.45-1.03-2.56c0-1.24.47-2.16,1.41-2.75s2.3-.97,4.07-1.12c.24-.02.61-.05,1.1-.09s.86-.07,1.1-.09v-1.07c0-.86-.2-1.49-.6-1.9s-1.03-.62-1.88-.62c-1.19,0-2.4.3-3.62.89-.04-.09-.13-.34-.29-.77s-.24-.64-.24-.66c.54-.3,1.18-.54,1.92-.72s1.5-.27,2.26-.27c1.51,0,2.6.33,3.27.99s1,1.78,1,3.37v8.03h-1.44ZM894.96,826.24c.88,0,1.65-.24,2.32-.72s1.1-1.13,1.29-1.95v-2.05s-.26.02-.67.06-.68.06-.8.07c-1.6.14-2.72.4-3.35.79s-.95,1-.95,1.85c0,.65.19,1.14.58,1.47s.91.5,1.58.5Z"/><path class="cls-2" d="M908.21,811.81c-.77,0-1.29.22-1.58.66s-.43,1.21-.43,2.3v.56h2.92v1.37h-2.92v10.76h-1.85v-10.76h-1.97l.15-1.22,1.81-.15v-.54c.01-1.56.31-2.7.88-3.4s1.5-1.06,2.77-1.06c.49,0,1.1.06,1.81.17l-.12,1.45c-.66-.1-1.15-.14-1.49-.14Z"/><path class="cls-2" d="M916.03,827.73c-1.76,0-3.15-.56-4.17-1.68s-1.52-2.66-1.52-4.6.49-3.41,1.47-4.57,2.27-1.76,3.87-1.79c1.5,0,2.7.51,3.58,1.54s1.32,2.4,1.32,4.12c0,.09,0,.25,0,.49s0,.41,0,.51h-8.33c.02,1.38.38,2.45,1.07,3.22s1.62,1.16,2.78,1.16c1.28,0,2.57-.34,3.86-1.02l.29,1.49c-1.23.75-2.64,1.13-4.22,1.13ZM917.9,817.58c-.54-.65-1.29-.97-2.23-.97s-1.71.33-2.31,1-.95,1.58-1.05,2.74h6.41c0-1.2-.27-2.13-.81-2.77ZM919.7,809.44l-3.6,4.29h-1.26l2.06-4.29h2.8Z"/><path class="cls-2" d="M944.22,827.48v-6.32c0-.59-.01-1.08-.04-1.48s-.08-.8-.18-1.22-.22-.74-.39-.98-.4-.44-.69-.59-.65-.23-1.06-.23c-.81,0-1.5.22-2.07.65s-.98,1.05-1.22,1.84c-.07.53-.1,1.1-.1,1.7v6.62h-1.85v-6.52c0-.55-.02-1.02-.06-1.42s-.11-.79-.21-1.17-.24-.69-.41-.92-.4-.42-.69-.56-.63-.21-1.03-.21c-.89,0-1.63.22-2.23.67s-1,1.05-1.21,1.79c-.07.57-.1,1.18-.1,1.85v6.49h-1.85c-.01-7.59-.02-11.63-.02-12.14h1.55l.23,1.74c.37-.56.89-1.03,1.57-1.42s1.45-.58,2.31-.58c.45,0,.86.05,1.24.14s.7.21.95.35.48.31.68.5.35.39.46.58.2.39.28.59c.89-1.44,2.24-2.16,4.06-2.16,1.35,0,2.34.39,2.97,1.16s.95,1.91.95,3.42v7.81h-1.85Z"/><path class="cls-2" d="M959.1,821.4c0,1.88-.5,3.41-1.5,4.57s-2.39,1.75-4.16,1.75-3.06-.59-4.07-1.77-1.51-2.7-1.51-4.55.51-3.41,1.52-4.58,2.4-1.75,4.16-1.75,3.09.58,4.08,1.75,1.48,2.69,1.48,4.56ZM949.78,821.44c0,1.44.32,2.59.96,3.46s1.57,1.3,2.79,1.3,2.12-.43,2.74-1.29.92-2.02.92-3.48-.3-2.65-.91-3.5-1.54-1.28-2.78-1.28-2.13.44-2.77,1.31-.95,2.04-.95,3.5Z"/><path class="cls-2" d="M964.98,827.7c-1.18,0-2.02-.32-2.51-.95s-.74-1.74-.74-3.31v-12.81l1.84-.11v12.19c0,.5,0,.9.02,1.21s.04.6.08.89.1.51.18.66.18.28.32.4.31.2.5.24.44.06.72.06c.24,0,.7-.04,1.39-.13l.1,1.47c-.76.13-1.4.19-1.91.19Z"/><path class="cls-2" d="M970.19,810.93v2.19h-1.86v-2.19h1.86ZM970.19,815.34v12.14h-1.86v-12.14h1.86Z"/><path class="cls-2" d="M982.04,825.72c-.4.61-.93,1.1-1.59,1.46-.66.36-1.41.54-2.22.54-1.6,0-2.85-.57-3.76-1.71s-1.36-2.69-1.36-4.65.46-3.39,1.38-4.54,2.16-1.73,3.71-1.73c.8,0,1.56.18,2.27.53s1.24.82,1.6,1.41l-.03-1.05v-5.34l1.83-.11v16.96h-1.57l-.24-1.76ZM978.4,826.14c1.22,0,2.12-.39,2.72-1.17s.89-1.9.89-3.35c0-1.64-.29-2.87-.86-3.7s-1.5-1.24-2.77-1.24c-.57,0-1.07.12-1.5.37s-.79.58-1.05,1.02-.47.93-.6,1.5-.2,1.18-.2,1.85c0,.94.12,1.76.35,2.46s.61,1.25,1.12,1.66,1.15.62,1.91.62Z"/><path class="cls-2" d="M997.73,821.4c0,1.88-.5,3.41-1.5,4.57s-2.39,1.75-4.16,1.75-3.06-.59-4.07-1.77-1.51-2.7-1.51-4.55.51-3.41,1.52-4.58,2.4-1.75,4.16-1.75,3.09.58,4.08,1.75,1.48,2.69,1.48,4.56ZM988.41,821.44c0,1.44.32,2.59.96,3.46s1.57,1.3,2.79,1.3,2.12-.43,2.74-1.29.92-2.02.92-3.48-.3-2.65-.91-3.5-1.54-1.28-2.78-1.28-2.13.44-2.77,1.31-.95,2.04-.95,3.5Z"/><path class="cls-2" d="M1016.67,821.4c0,1.88-.5,3.41-1.5,4.57s-2.39,1.75-4.16,1.75-3.06-.59-4.07-1.77-1.51-2.7-1.51-4.55.51-3.41,1.52-4.58,2.4-1.75,4.16-1.75,3.09.58,4.08,1.75,1.48,2.69,1.48,4.56ZM1007.35,821.44c0,1.44.32,2.59.96,3.46s1.57,1.3,2.79,1.3,2.12-.43,2.74-1.29.92-2.02.92-3.48-.3-2.65-.91-3.5-1.54-1.28-2.78-1.28-2.13.44-2.77,1.31-.95,2.04-.95,3.5Z"/><path class="cls-2" d="M1033.31,825.72c-.4.61-.93,1.1-1.59,1.46-.66.36-1.41.54-2.22.54-1.6,0-2.85-.57-3.76-1.71s-1.36-2.69-1.36-4.65.46-3.39,1.38-4.54,2.16-1.73,3.71-1.73c.8,0,1.56.18,2.27.53s1.24.82,1.6,1.41l-.03-1.05v-5.34l1.83-.11v16.96h-1.57l-.24-1.76ZM1029.67,826.14c1.22,0,2.12-.39,2.72-1.17s.89-1.9.89-3.35c0-1.64-.29-2.87-.86-3.7s-1.5-1.24-2.77-1.24c-.57,0-1.07.12-1.5.37s-.79.58-1.05,1.02-.47.93-.6,1.5-.2,1.18-.2,1.85c0,.94.12,1.76.35,2.46s.61,1.25,1.12,1.66,1.15.62,1.91.62Z"/><path class="cls-2" d="M1043.47,827.73c-1.76,0-3.15-.56-4.17-1.68s-1.52-2.66-1.52-4.6.49-3.41,1.47-4.57c.98-1.17,2.27-1.76,3.87-1.79,1.5,0,2.7.51,3.58,1.54s1.32,2.4,1.32,4.12c0,.09,0,.25,0,.49s0,.41,0,.51h-8.33c.02,1.38.38,2.45,1.07,3.22s1.62,1.16,2.78,1.16c1.28,0,2.57-.34,3.86-1.02l.29,1.49c-1.23.75-2.64,1.13-4.22,1.13ZM1045.33,817.58c-.54-.65-1.29-.97-2.23-.97s-1.71.33-2.31,1-.95,1.58-1.05,2.74h6.41c0-1.2-.27-2.13-.81-2.77Z"/><path class="cls-2" d="M1061.38,827.73c-1.78,0-3.18-.58-4.19-1.74s-1.51-2.67-1.51-4.55c0-1.89.52-3.42,1.54-4.6s2.42-1.76,4.2-1.76c.63,0,1.23.08,1.82.23s1.05.36,1.39.61l-.51,1.44c-.86-.46-1.77-.7-2.73-.7-1.17,0-2.1.43-2.78,1.28s-1.02,2.02-1.02,3.51.34,2.59,1.01,3.44,1.61,1.27,2.8,1.27c.95,0,1.92-.26,2.92-.77l.23,1.47c-.8.58-1.86.87-3.18.87Z"/><path class="cls-2" d="M1074.48,827.48c-.11-.47-.22-.98-.32-1.53-.67.67-1.3,1.14-1.89,1.39s-1.28.39-2.08.39c-1.14,0-2.05-.3-2.74-.89s-1.03-1.45-1.03-2.56c0-1.24.47-2.16,1.41-2.75s2.3-.97,4.07-1.12c.24-.02.61-.05,1.1-.09s.86-.07,1.1-.09v-1.07c0-.86-.2-1.49-.6-1.9s-1.03-.62-1.88-.62c-1.19,0-2.4.3-3.62.89-.04-.09-.13-.34-.29-.77s-.24-.64-.24-.66c.54-.3,1.18-.54,1.92-.72s1.5-.27,2.26-.27c1.51,0,2.6.33,3.27.99s1,1.78,1,3.37v8.03h-1.44ZM1070.46,826.24c.88,0,1.65-.24,2.32-.72s1.1-1.13,1.29-1.95v-2.05s-.26.02-.67.06-.68.06-.8.07c-1.6.14-2.72.4-3.35.79s-.95,1-.95,1.85c0,.65.19,1.14.58,1.47s.91.5,1.58.5ZM1075.39,809.44l-3.6,4.29h-1.26l2.06-4.29h2.8Z"/><path class="cls-2" d="M1079.1,832.74v-17.4h1.63l.18,1.65c1.06-1.27,2.34-1.9,3.83-1.9,1.11,0,2.04.28,2.81.83s1.33,1.3,1.7,2.25.55,2.05.55,3.31-.2,2.28-.6,3.22-.98,1.68-1.75,2.22-1.67.81-2.7.81c-.78,0-1.52-.18-2.2-.53-.69-.35-1.24-.81-1.65-1.39.04.8.07,1.57.07,2.32v4.48l-1.85.12ZM1084.48,826.17c.56,0,1.06-.13,1.5-.38s.8-.6,1.07-1.05.48-.95.62-1.51.21-1.17.21-1.83c0-1.39-.29-2.52-.87-3.41s-1.43-1.33-2.56-1.33c-2.35,0-3.52,1.52-3.52,4.55,0,1.64.27,2.88.82,3.72s1.45,1.25,2.72,1.25Z"/><path class="cls-2" d="M1096.01,827.73c-.83,0-1.59-.09-2.28-.27s-1.26-.41-1.7-.69l.23-1.56c1.23.66,2.44.98,3.63.98,1.8,0,2.73-.63,2.78-1.9,0-.54-.19-.96-.58-1.27s-1.14-.66-2.26-1.04l-.92-.32c-1.06-.35-1.82-.79-2.27-1.32s-.68-1.18-.69-1.96c0-.95.38-1.74,1.15-2.37s1.81-.94,3.14-.94,2.62.27,3.75.8l-.54,1.42c-1.14-.47-2.21-.71-3.21-.71-.77,0-1.38.15-1.82.46s-.66.74-.66,1.29c0,.47.16.83.48,1.08s.95.54,1.9.86c.24.09.55.19.92.31,1.22.4,2.09.87,2.6,1.41s.76,1.27.76,2.2c-.01,1.12-.42,1.99-1.21,2.61s-1.85.92-3.2.92Z"/><path class="cls-2" d="M1102.51,823.43v-8.09h1.86v8.11c0,.53.08.98.23,1.35s.37.65.65.86.6.35.96.44.77.13,1.23.13c.96,0,1.71-.21,2.24-.63s.8-1.14.8-2.15v-8.11h1.86v8.09c0,.62-.09,1.18-.27,1.67s-.41.91-.71,1.23-.66.6-1.08.81-.86.37-1.33.46c-.47.09-.97.14-1.51.14s-1.03-.05-1.5-.14c-.47-.1-.92-.25-1.34-.47s-.79-.49-1.1-.82-.55-.74-.72-1.23-.27-1.05-.27-1.66Z"/><path class="cls-2" d="M1118.37,827.7c-1.18,0-2.02-.32-2.51-.95s-.74-1.74-.74-3.31v-12.81l1.84-.11v12.19c0,.5,0,.9.02,1.21s.04.6.08.89.1.51.18.66.18.28.32.4.31.2.5.24.44.06.72.06c.24,0,.7-.04,1.39-.13l.1,1.47c-.76.13-1.4.19-1.91.19Z"/><path class="cls-2" d="M1128.92,827.48c-.11-.47-.22-.98-.32-1.53-.67.67-1.3,1.14-1.89,1.39s-1.28.39-2.08.39c-1.14,0-2.05-.3-2.74-.89s-1.03-1.45-1.03-2.56c0-1.24.47-2.16,1.41-2.75s2.3-.97,4.07-1.12c.24-.02.61-.05,1.1-.09s.86-.07,1.1-.09v-1.07c0-.86-.2-1.49-.6-1.9s-1.03-.62-1.88-.62c-1.19,0-2.4.3-3.62.89-.04-.09-.13-.34-.29-.77s-.24-.64-.24-.66c.54-.3,1.18-.54,1.92-.72s1.5-.27,2.26-.27c1.51,0,2.6.33,3.27.99s1,1.78,1,3.37v8.03h-1.44ZM1124.9,826.24c.88,0,1.65-.24,2.32-.72s1.1-1.13,1.29-1.95v-2.05s-.26.02-.67.06-.68.06-.8.07c-1.6.14-2.72.4-3.35.79s-.95,1-.95,1.85c0,.65.19,1.14.58,1.47s.91.5,1.58.5Z"/><polygon class="cls-4" points="1344.24 734.32 1766.67 729.88 1766.67 763.29 1670.42 848.19 1439 848.19 1342.74 848.19 1344.24 734.32"/><polygon class="cls-1" points="1344.24 734.32 1766.67 729.88 1766.49 761.88 1670.87 848.19 1439.18 848.19 1342.93 848.19 1344.24 734.32"/><path class="cls-3" d="M1366.37,762.34h7.56c2.46,0,4.3.66,5.53,1.98,1.23,1.32,1.84,3.25,1.84,5.8v15.92c0,2.55-.61,4.48-1.84,5.8s-3.07,1.98-5.53,1.98h-7.56v-31.48ZM1373.84,789.32c.81,0,1.43-.24,1.87-.72.43-.48.65-1.26.65-2.34v-16.37c0-1.08-.22-1.86-.65-2.34s-1.06-.72-1.87-.72h-2.52v22.49h2.52Z"/><path class="cls-3" d="M1384.63,762.34h4.95v31.48h-4.95v-31.48Z"/><path class="cls-3" d="M1394.26,792.22c-1.23-1.36-1.84-3.32-1.84-5.87v-1.8h4.68v2.16c0,2.04.85,3.06,2.56,3.06.84,0,1.48-.25,1.91-.74.43-.5.65-1.3.65-2.41,0-1.32-.3-2.48-.9-3.49-.6-1-1.71-2.21-3.33-3.62-2.04-1.8-3.46-3.42-4.27-4.88-.81-1.45-1.22-3.1-1.22-4.92,0-2.49.63-4.41,1.89-5.78,1.26-1.36,3.09-2.05,5.49-2.05s4.16.68,5.37,2.05c1.21,1.37,1.82,3.32,1.82,5.87v1.3h-4.68v-1.62c0-1.08-.21-1.87-.63-2.36-.42-.5-1.03-.74-1.84-.74-1.65,0-2.47,1-2.47,3.01,0,1.14.31,2.2.92,3.19.61.99,1.73,2.19,3.35,3.6,2.07,1.8,3.49,3.43,4.27,4.9.78,1.47,1.17,3.19,1.17,5.17,0,2.58-.64,4.56-1.91,5.94-1.27,1.38-3.13,2.07-5.55,2.07s-4.21-.68-5.44-2.05Z"/><path class="cls-3" d="M1410,762.34h13.09v4.5h-8.14v8.77h6.39v4.5h-6.39v13.72h-4.95v-31.48Z"/><path class="cls-3" d="M1425.47,762.34h7.33c2.55,0,4.41.59,5.58,1.78,1.17,1.18,1.75,3.01,1.75,5.46v1.93c0,3.27-1.08,5.34-3.24,6.21v.09c1.2.36,2.05,1.09,2.54,2.2.5,1.11.74,2.59.74,4.45v5.53c0,.9.03,1.63.09,2.18s.21,1.1.45,1.64h-5.04c-.18-.51-.3-.99-.36-1.44-.06-.45-.09-1.26-.09-2.43v-5.76c0-1.44-.23-2.44-.7-3.01-.46-.57-1.27-.85-2.41-.85h-1.71v13.49h-4.95v-31.48ZM1432.21,775.83c.99,0,1.73-.25,2.23-.76.5-.51.74-1.36.74-2.56v-2.43c0-1.14-.2-1.96-.61-2.47-.41-.51-1.04-.76-1.91-.76h-2.25v8.99h1.8Z"/><path class="cls-3" d="M1445.3,792.22c-1.26-1.36-1.89-3.32-1.89-5.87v-24.02h4.95v24.38c0,1.08.22,1.86.65,2.34s1.06.72,1.87.72,1.43-.24,1.87-.72.65-1.26.65-2.34v-24.38h4.77v24.02c0,2.55-.63,4.5-1.89,5.87-1.26,1.36-3.09,2.05-5.49,2.05s-4.23-.68-5.49-2.05Z"/><path class="cls-3" d="M1465.54,766.83h-5.17v-4.5h15.29v4.5h-5.17v26.98h-4.95v-26.98Z"/><path class="cls-3" d="M1479.8,762.34h6.7l5.13,31.48h-4.95l-.9-6.25v.09h-5.62l-.9,6.16h-4.59l5.13-31.48ZM1485.2,783.38l-2.2-15.56h-.09l-2.16,15.56h4.45Z"/><path class="cls-3" d="M1494.01,762.34h7.33c2.55,0,4.41.59,5.58,1.78,1.17,1.18,1.75,3.01,1.75,5.46v1.93c0,3.27-1.08,5.34-3.24,6.21v.09c1.2.36,2.05,1.09,2.54,2.2.5,1.11.74,2.59.74,4.45v5.53c0,.9.03,1.63.09,2.18s.21,1.1.45,1.64h-5.04c-.18-.51-.3-.99-.36-1.44-.06-.45-.09-1.26-.09-2.43v-5.76c0-1.44-.23-2.44-.7-3.01-.46-.57-1.27-.85-2.41-.85h-1.71v13.49h-4.95v-31.48ZM1500.76,775.83c.99,0,1.73-.25,2.23-.76.5-.51.74-1.36.74-2.56v-2.43c0-1.14-.2-1.96-.61-2.47-.4-.51-1.04-.76-1.91-.76h-2.25v8.99h1.8Z"/><path class="cls-2" d="M1367.45,825.69c1.67.82,3.45,1.23,5.36,1.23,2.34,0,3.52-1.07,3.52-3.2,0-.69-.19-1.25-.56-1.68s-1.05-.77-2.03-1.01l-3.18-.8c-2.43-.61-3.65-1.91-3.65-3.89,0-1.52.52-2.65,1.57-3.39s2.49-1.11,4.34-1.11c.97,0,1.87.1,2.72.31s1.55.49,2.12.84l-.54,1.53c-.48-.27-1.12-.5-1.92-.71s-1.6-.31-2.42-.31c-2.61,0-3.92.91-3.92,2.72,0,.61.2,1.11.6,1.48s1,.65,1.8.85l3.04.74c1.3.31,2.28.81,2.95,1.49s1.01,1.65,1.01,2.9c0,1.63-.5,2.86-1.5,3.68s-2.36,1.24-4.07,1.24c-1.28,0-2.43-.13-3.42-.39s-1.79-.58-2.37-.94l.56-1.56Z"/><path class="cls-2" d="M1380.28,824.37v-7.91h1.82v7.93c0,.52.07.96.22,1.32s.36.64.64.84.59.34.94.43.75.13,1.21.13c.94,0,1.67-.21,2.19-.62s.78-1.11.78-2.1v-7.93h1.82v7.91c0,.61-.09,1.15-.26,1.63s-.41.89-.7,1.21-.64.59-1.05.8-.85.36-1.3.45-.95.14-1.48.14-1.01-.05-1.47-.14-.9-.25-1.31-.46-.77-.48-1.07-.8-.54-.72-.71-1.21-.26-1.02-.26-1.62Z"/><path class="cls-2" d="M1403.14,828.58c-1.75,0-3.11-.57-4.09-1.7s-1.48-2.61-1.48-4.45c0-1.85.51-3.34,1.51-4.5s2.37-1.73,4.11-1.73c.61,0,1.21.08,1.78.23s1.03.35,1.36.6l-.5,1.41c-.84-.45-1.73-.68-2.67-.68-1.15,0-2.05.42-2.72,1.25s-1,1.98-1,3.43.33,2.53.99,3.36,1.57,1.24,2.74,1.24c.93,0,1.88-.25,2.86-.76l.23,1.44c-.79.57-1.82.85-3.1.85Z"/><path class="cls-2" d="M1415.95,828.33c-.11-.46-.21-.96-.31-1.49-.66.66-1.27,1.11-1.85,1.36s-1.25.38-2.03.38c-1.11,0-2-.29-2.68-.87s-1.01-1.42-1.01-2.5c0-1.21.46-2.11,1.38-2.69s2.24-.95,3.98-1.09c.24-.02.6-.05,1.08-.09s.84-.07,1.08-.09v-1.05c0-.84-.19-1.46-.58-1.86s-1-.61-1.84-.61c-1.17,0-2.35.29-3.54.87-.04-.09-.13-.34-.28-.75s-.23-.63-.24-.64c.53-.3,1.15-.53,1.88-.71s1.46-.27,2.21-.27c1.48,0,2.54.32,3.2.97s.98,1.74.98,3.29v7.85h-1.41ZM1412.02,827.12c.86,0,1.61-.24,2.27-.71s1.07-1.11,1.26-1.91v-2s-.25.02-.65.05-.66.06-.78.06c-1.57.14-2.66.39-3.27.77s-.92.98-.92,1.81c0,.63.19,1.11.56,1.44s.89.49,1.55.49Z"/><path class="cls-2" d="M1424.98,813.01c-.75,0-1.26.22-1.54.65s-.42,1.18-.42,2.25v.55h2.86v1.34h-2.86v10.53h-1.81v-10.53h-1.93l.15-1.19,1.77-.15v-.53c.01-1.53.3-2.64.86-3.33s1.46-1.03,2.71-1.03c.48,0,1.07.05,1.77.16l-.12,1.42c-.64-.09-1.13-.14-1.46-.14Z"/><path class="cls-2" d="M1432.63,828.58c-1.72,0-3.08-.55-4.07-1.64s-1.49-2.6-1.49-4.5.48-3.33,1.44-4.47,2.22-1.73,3.79-1.75c1.47,0,2.64.5,3.5,1.51s1.29,2.35,1.29,4.03c0,.09,0,.25,0,.48s0,.4,0,.5h-8.15c.02,1.35.37,2.4,1.04,3.15s1.58,1.13,2.72,1.13c1.25,0,2.51-.33,3.78-1l.28,1.46c-1.2.74-2.58,1.1-4.12,1.1ZM1434.45,818.66c-.53-.63-1.26-.95-2.18-.95s-1.68.33-2.26.98-.93,1.55-1.03,2.68h6.26c0-1.18-.27-2.08-.8-2.71ZM1436.21,810.7l-3.52,4.2h-1.23l2.01-4.2h2.74Z"/><path class="cls-2" d="M1450.14,828.58c-1.72,0-3.08-.55-4.07-1.64s-1.49-2.6-1.49-4.5.48-3.33,1.44-4.47,2.22-1.73,3.79-1.75c1.47,0,2.64.5,3.5,1.51s1.29,2.35,1.29,4.03c0,.09,0,.25,0,.48s0,.4,0,.5h-8.15c.02,1.35.37,2.4,1.04,3.15s1.58,1.13,2.72,1.13c1.25,0,2.51-.33,3.78-1l.28,1.46c-1.2.74-2.58,1.1-4.12,1.1ZM1451.97,818.66c-.53-.63-1.26-.95-2.18-.95s-1.68.33-2.26.98-.93,1.55-1.03,2.68h6.26c0-1.18-.27-2.08-.8-2.71Z"/><path class="cls-2" d="M1457.11,828.33v-11.87h1.51l.23,1.7c.47-.58,1.05-1.05,1.76-1.41s1.46-.54,2.28-.54c1.37,0,2.38.38,3.04,1.15s.98,1.95.98,3.54v7.42h-1.81c0-4.76,0-7.31-.01-7.65-.03-1.01-.23-1.75-.61-2.22s-1.01-.7-1.9-.7-1.71.22-2.33.67-1.02,1.03-1.21,1.74c-.07.48-.11,1.04-.11,1.67v6.49h-1.83Z"/><path class="cls-2" d="M1480.47,828.58c-1.75,0-3.11-.57-4.09-1.7s-1.48-2.61-1.48-4.45c0-1.85.51-3.34,1.51-4.5s2.37-1.73,4.11-1.73c.61,0,1.21.08,1.78.23s1.03.35,1.36.6l-.5,1.41c-.84-.45-1.73-.68-2.67-.68-1.15,0-2.05.42-2.72,1.25s-1,1.98-1,3.43.33,2.53.99,3.36,1.57,1.24,2.74,1.24c.93,0,1.88-.25,2.86-.76l.23,1.44c-.79.57-1.82.85-3.1.85Z"/><path class="cls-2" d="M1485.51,824.37v-7.91h1.82v7.93c0,.52.07.96.22,1.32s.36.64.64.84.59.34.94.43.75.13,1.21.13c.94,0,1.67-.21,2.19-.62s.78-1.11.78-2.1v-7.93h1.82v7.91c0,.61-.09,1.15-.26,1.63s-.41.89-.7,1.21-.64.59-1.05.8-.85.36-1.3.45-.95.14-1.48.14-1.01-.05-1.47-.14-.9-.25-1.31-.46-.77-.48-1.07-.8-.54-.72-.71-1.21-.26-1.02-.26-1.62Z"/><path class="cls-2" d="M1505.18,828.33c-.11-.46-.21-.96-.31-1.49-.66.66-1.27,1.11-1.85,1.36s-1.25.38-2.03.38c-1.11,0-2-.29-2.68-.87s-1.01-1.42-1.01-2.5c0-1.21.46-2.11,1.38-2.69s2.24-.95,3.98-1.09c.24-.02.6-.05,1.08-.09s.84-.07,1.08-.09v-1.05c0-.84-.19-1.46-.58-1.86s-1-.61-1.84-.61c-1.17,0-2.35.29-3.54.87-.04-.09-.13-.34-.28-.75s-.23-.63-.24-.64c.53-.3,1.15-.53,1.88-.71s1.46-.27,2.21-.27c1.48,0,2.54.32,3.2.97s.98,1.74.98,3.29v7.85h-1.41ZM1501.25,827.12c.86,0,1.61-.24,2.27-.71s1.07-1.11,1.26-1.91v-2s-.25.02-.65.05-.66.06-.78.06c-1.57.14-2.66.39-3.27.77s-.92.98-.92,1.81c0,.63.19,1.11.56,1.44s.89.49,1.55.49Z"/><path class="cls-2" d="M1512.89,828.55c-1.15,0-1.97-.31-2.45-.93s-.72-1.7-.72-3.23v-12.53l1.8-.11v11.92c0,.49,0,.88.02,1.18s.04.59.08.87.1.5.17.64.18.28.31.39.3.2.49.24.43.06.71.06c.23,0,.69-.04,1.36-.13l.1,1.44c-.74.12-1.37.18-1.87.18Z"/><path class="cls-2" d="M1520.28,828.58c-1.03,0-1.92-.27-2.68-.8s-1.32-1.25-1.69-2.16-.56-1.95-.56-3.14.19-2.31.56-3.24.94-1.67,1.71-2.21,1.68-.81,2.75-.81c1.48,0,2.72.64,3.73,1.93l.13-1.68h1.6v16.91l-1.81.11v-5.27c0-.53.02-1.06.05-1.6-.4.61-.93,1.09-1.59,1.44s-1.39.53-2.21.53ZM1520.52,827.02c1.2,0,2.08-.38,2.65-1.13s.86-1.85.87-3.29c0-1.59-.28-2.8-.83-3.61s-1.45-1.22-2.69-1.22c-.75,0-1.38.21-1.89.64s-.87.98-1.09,1.66-.32,1.46-.32,2.34c0,.67.06,1.28.19,1.82s.32,1.03.58,1.45.6.75,1.03.98.93.35,1.51.35Z"/><path class="cls-2" d="M1528.54,824.37v-7.91h1.82v7.93c0,.52.07.96.22,1.32s.36.64.64.84.59.34.94.43.75.13,1.21.13c.94,0,1.67-.21,2.19-.62s.78-1.11.78-2.1v-7.93h1.82v7.91c0,.61-.09,1.15-.26,1.63s-.41.89-.7,1.21-.64.59-1.05.8-.85.36-1.3.45-.95.14-1.48.14-1.01-.05-1.47-.14-.9-.25-1.31-.46-.77-.48-1.07-.8-.54-.72-.71-1.21-.26-1.02-.26-1.62Z"/><path class="cls-2" d="M1542.99,812.15v2.14h-1.82v-2.14h1.82ZM1542.99,816.47v11.87h-1.82v-11.87h1.82Z"/><path class="cls-2" d="M1551.4,828.58c-1.72,0-3.08-.55-4.07-1.64s-1.49-2.6-1.49-4.5.48-3.33,1.44-4.47,2.22-1.73,3.79-1.75c1.47,0,2.64.5,3.5,1.51s1.29,2.35,1.29,4.03c0,.09,0,.25,0,.48s0,.4,0,.5h-8.15c.02,1.35.37,2.4,1.04,3.15s1.58,1.13,2.72,1.13c1.25,0,2.51-.33,3.78-1l.28,1.46c-1.2.74-2.58,1.1-4.12,1.1ZM1553.23,818.66c-.53-.63-1.26-.95-2.18-.95s-1.68.33-2.26.98-.93,1.55-1.03,2.68h6.26c0-1.18-.27-2.08-.8-2.71Z"/><path class="cls-2" d="M1563.69,816.36c.32,0,.62.02.89.06l-.06,1.67c-.33-.06-.62-.09-.87-.09-1.01,0-1.83.35-2.46,1.05s-.95,1.57-.95,2.61v6.66h-1.81c0-7.28-.01-11.24-.01-11.87h1.5l.17,2.13c.41-.67.93-1.21,1.57-1.62s1.31-.62,2.02-.62Z"/><path class="cls-2" d="M1575.16,828.55c-1.15,0-1.97-.31-2.45-.93s-.72-1.7-.72-3.23v-12.53l1.8-.11v11.92c0,.49,0,.88.02,1.18s.04.59.08.87.1.5.17.64.18.28.31.39.3.2.49.24.43.06.71.06c.23,0,.69-.04,1.36-.13l.1,1.44c-.74.12-1.37.18-1.87.18Z"/><path class="cls-2" d="M1577.71,824.37v-7.91h1.82v7.93c0,.52.07.96.22,1.32s.36.64.64.84.59.34.94.43.75.13,1.21.13c.94,0,1.67-.21,2.19-.62s.78-1.11.78-2.1v-7.93h1.82v7.91c0,.61-.09,1.15-.26,1.63s-.41.89-.7,1.21-.64.59-1.05.8-.85.36-1.3.45-.95.14-1.48.14-1.01-.05-1.47-.14-.9-.25-1.31-.46-.77-.48-1.07-.8-.54-.72-.71-1.21-.26-1.02-.26-1.62Z"/><path class="cls-2" d="M1591.85,833.76l-.16-1.63h2.21c.61,0,1.15-.04,1.6-.13s.83-.23,1.14-.43.55-.42.74-.66.33-.56.43-.94.16-.77.19-1.15.05-.84.05-1.39v-1.05c-.43.62-.93,1.1-1.5,1.43s-1.29.5-2.17.5c-.68,0-1.3-.12-1.88-.35s-1.06-.55-1.45-.94-.73-.84-1.01-1.35-.48-1.04-.61-1.59-.19-1.1-.19-1.66c0-.87.11-1.67.32-2.4s.53-1.39.95-1.97.97-1.03,1.65-1.36,1.46-.49,2.34-.49c.78,0,1.46.15,2.04.45s1.1.76,1.56,1.38v-1.58h1.76v11.01c0,.5-.01.95-.04,1.33s-.09.8-.18,1.26-.23.86-.39,1.19-.4.67-.7,1-.66.61-1.07.81-.93.37-1.54.5-1.31.19-2.08.19h-2ZM1594.63,826.79c.61,0,1.15-.11,1.61-.32s.82-.52,1.08-.9.45-.81.58-1.28.19-.98.19-1.54v-.88c0-.58-.06-1.11-.19-1.6s-.33-.92-.6-1.31-.63-.69-1.08-.9-.98-.32-1.57-.32c-.5,0-.95.09-1.36.28s-.74.43-1.01.74-.49.66-.67,1.07-.32.82-.39,1.24-.12.84-.12,1.27.04.83.13,1.24.22.81.41,1.2.41.73.68,1.02.6.53,1,.71.84.27,1.31.27Z"/><path class="cls-2" d="M1610.22,828.33c-.11-.46-.21-.96-.31-1.49-.66.66-1.27,1.11-1.85,1.36s-1.25.38-2.03.38c-1.11,0-2-.29-2.68-.87s-1.01-1.42-1.01-2.5c0-1.21.46-2.11,1.38-2.69s2.24-.95,3.98-1.09c.24-.02.6-.05,1.08-.09s.84-.07,1.08-.09v-1.05c0-.84-.19-1.46-.58-1.86s-1-.61-1.84-.61c-1.17,0-2.35.29-3.54.87-.04-.09-.13-.34-.28-.75s-.23-.63-.24-.64c.53-.3,1.15-.53,1.88-.71s1.46-.27,2.21-.27c1.48,0,2.54.32,3.2.97s.98,1.74.98,3.29v7.85h-1.41ZM1606.3,827.12c.86,0,1.61-.24,2.27-.71s1.07-1.11,1.26-1.91v-2s-.25.02-.65.05-.66.06-.78.06c-1.57.14-2.66.39-3.27.77s-.92.98-.92,1.81c0,.63.19,1.11.56,1.44s.89.49,1.55.49Z"/><path class="cls-2" d="M1620.07,816.36c.32,0,.62.02.89.06l-.06,1.67c-.33-.06-.62-.09-.87-.09-1.01,0-1.83.35-2.46,1.05s-.95,1.57-.95,2.61v6.66h-1.81c0-7.28-.01-11.24-.01-11.87h1.5l.17,2.13c.41-.67.93-1.21,1.57-1.62s1.31-.62,2.02-.62Z"/><circle class="cls-3" cx="694.26" cy="724.65" r="39.01"/><path class="cls-2" d="M694.42,713.47h-6.99v-4.74c1.9,0,3.43-.16,4.59-.49,1.15-.32,2.08-.86,2.77-1.61.69-.75,1.3-1.83,1.82-3.25h4.5v42.55h-6.69v-32.46Z"/><circle class="cls-3" cx="1208.18" cy="724.67" r="38.81"/><path class="cls-2" d="M1198.26,741.55c0-3.02.48-5.61,1.45-7.77.97-2.16,2.7-4.55,5.2-7.17,2.46-2.62,4.16-4.86,5.11-6.71.95-1.85,1.42-3.79,1.42-5.81,0-1.81-.29-3.07-.88-3.78-.59-.71-1.44-1.06-2.57-1.06-2.3,0-3.45,1.39-3.45,4.17v4.54h-6.29v-4.11c0-3.43.85-6.06,2.54-7.89,1.69-1.83,4.15-2.75,7.38-2.75s5.69.92,7.38,2.75c1.69,1.84,2.54,4.47,2.54,7.89,0,2.58-.62,5.1-1.85,7.56-1.23,2.46-3.36,5.28-6.38,8.47-1.98,2.1-3.31,3.8-3.99,5.11-.69,1.31-1.03,2.71-1.03,4.2v.91h12.64v6.05h-19.23v-4.6Z"/><circle class="cls-3" cx="1716.84" cy="724.53" r="39.59"/><path class="cls-2" d="M1709.28,743.96c-1.71-1.85-2.56-4.5-2.56-7.96v-3.52h6.42v3.83c0,2.84,1.17,4.26,3.52,4.26,1.15,0,2.03-.36,2.62-1.08.6-.72.89-1.98.89-3.79v-3.52c0-1.97-.35-3.38-1.05-4.23-.7-.84-1.83-1.26-3.39-1.26h-2.28v-6.17h2.47c1.36,0,2.38-.35,3.05-1.05.68-.7,1.02-1.87,1.02-3.52v-3.15c0-1.48-.31-2.57-.92-3.27-.62-.7-1.44-1.05-2.47-1.05-2.18,0-3.27,1.34-3.27,4.01v2.84h-6.42v-2.28c0-3.46.85-6.11,2.56-7.96,1.71-1.85,4.16-2.78,7.37-2.78s5.72.92,7.4,2.75c1.69,1.83,2.53,4.47,2.53,7.93v1.54c0,2.34-.39,4.23-1.17,5.65-.78,1.42-2,2.44-3.64,3.05v.12c1.77.66,3.04,1.73,3.83,3.21.78,1.48,1.17,3.37,1.17,5.68v3.83c0,3.45-.85,6.1-2.56,7.93-1.71,1.83-4.23,2.75-7.56,2.75s-5.85-.93-7.56-2.78Z"/></svg>